<svg id="Layer_1" data-name="Layer 1" xmlns="http://www.w3.org/2000/svg" viewBox="0 0 223 218"><defs><style>.cls-1{fill:#94877e;}</style></defs><title>icons</title><path class="cls-1" d="M149.53,82.23a3.39,3.39,0,0,0-.9,4.71,61,61,0,1,1-16.75-16.56,3.39,3.39,0,0,0,3.75-5.65,67.78,67.78,0,1,0,18.61,18.39A3.38,3.38,0,0,0,149.53,82.23Z"/><path class="cls-1" d="M121,84.62a3.38,3.38,0,0,0-1.42-4.56,46.35,46.35,0,1,0,19,18.56,3.38,3.38,0,1,0-5.9,3.28A39.57,39.57,0,1,1,116.43,86,3.38,3.38,0,0,0,121,84.62Z"/><path class="cls-1" d="M98.7,104.91a19.41,19.41,0,0,1,2.42.16,3.35,3.35,0,0,0,.9-6.64,24.65,24.65,0,1,0,21.33,24.43,24.92,24.92,0,0,0-.44-4.65,3.35,3.35,0,0,0-6.58,1.26,18.19,18.19,0,0,1,.31,3.39,17.95,17.95,0,1,1-17.94-18Z"/><path class="cls-1" d="M192.4,49.34a3.15,3.15,0,0,0-2.9-1.92h0l-15.42.06L174,32.19a3.22,3.22,0,0,0-.87-2.29,3.16,3.16,0,0,0-4.49,0L146.1,52.21a3.1,3.1,0,0,0-.92,2.21v15.5l-43.11,42.77a9.09,9.09,0,0,0-5.6.21,9.21,9.21,0,0,0,5.37,17.6,9.16,9.16,0,0,0,6.35-5.52,9,9,0,0,0,.12-6.53l43-42.62,6.3.11c2.72,0,4.79.09,6.38.09,4.38,0,5.1-.28,5.64-1.34l22.13-21.95A3.09,3.09,0,0,0,192.4,49.34ZM166,69.53c-2.45,0-8.56-.12-13.6-.22V55.42l15.64-16.16,0,11.08a3.06,3.06,0,0,0,3,3.1h0l10.5,0Z"/></svg>