<svg id="Layer_1" data-name="Layer 1" xmlns="http://www.w3.org/2000/svg" viewBox="0 0 223 218"><defs><style>.cls-1{fill:#94877e;}</style></defs><title>icon-bow</title><path class="cls-1" d="M143.44,136.14,116.3,109l54.2-54.2.72-.21a6.79,6.79,0,0,0,8.1-7.32,7.09,7.09,0,0,0-7.19-6.12c-41,.07-72.13,10.23-93.56,30.12L63,55.71l7.2-7.2L43.65,41.15,51,67.71l7.2-7.2L73.78,76.07c-19.9,21.43-30.06,52.59-30.13,93.55a7.09,7.09,0,0,0,6.11,7.2,6.79,6.79,0,0,0,7.33-8.1l.21-.72,54.2-54.2,27.14,27.14V156.5L159,176.85V156.5h20.35L159,136.14ZM55.11,157.62C56.88,125.35,65.77,100.57,81.89,83l23.91,23.91ZM86.84,78.08c17.55-16.12,42.32-25,74.6-26.77L110.75,102Z"/></svg>