<svg id="Layer_1" data-name="Layer 1" xmlns="http://www.w3.org/2000/svg" viewBox="0 0 418.3 238"><defs><style>.cls-1{fill:#eeefeb;}.cls-2{fill:#94877e;}</style></defs><title>icon-bullseye</title><rect class="cls-1" width="418.3" height="238"/><path class="cls-2" d="M247.18,88.23a3.38,3.38,0,0,0-.89,4.71,61,61,0,1,1-16.76-16.56,3.39,3.39,0,0,0,3.75-5.65,67.78,67.78,0,1,0,18.61,18.39A3.38,3.38,0,0,0,247.18,88.23Z"/><path class="cls-2" d="M218.64,90.62a3.38,3.38,0,0,0-1.42-4.56,46.35,46.35,0,1,0,19,18.56,3.38,3.38,0,1,0-5.9,3.28A39.57,39.57,0,1,1,214.08,92,3.37,3.37,0,0,0,218.64,90.62Z"/><path class="cls-2" d="M196.35,110.91a19.29,19.29,0,0,1,2.42.16,3.35,3.35,0,0,0,.9-6.64,24.36,24.36,0,0,0-3.32-.22,24.64,24.64,0,1,0,24.21,20,3.35,3.35,0,0,0-6.58,1.26,18.2,18.2,0,0,1,.32,3.39,17.95,17.95,0,1,1-18-18Z"/><path class="cls-2" d="M290.05,55.34a3.15,3.15,0,0,0-2.9-1.92h0l-15.42.06-.06-15.29a3.25,3.25,0,0,0-.86-2.29,3.17,3.17,0,0,0-4.5,0L243.76,58.21a3.1,3.1,0,0,0-.92,2.21v15.5l-43.12,42.77a9.05,9.05,0,0,0-5.59.21,9.21,9.21,0,0,0,5.37,17.6,9.14,9.14,0,0,0,6.34-5.52,9,9,0,0,0,.12-6.53l43-42.62,6.3.11c2.72,0,4.79.09,6.38.09,4.38,0,5.1-.28,5.64-1.34l22.13-21.95A3.09,3.09,0,0,0,290.05,55.34ZM263.66,75.53c-2.45,0-8.55-.12-13.6-.22V61.42L265.7,45.26l.05,11.08a3.07,3.07,0,0,0,3,3.1h0l10.5,0Z"/></svg>