<svg id="Layer_1" data-name="Layer 1" xmlns="http://www.w3.org/2000/svg" viewBox="0 0 418.3 238"><defs><style>.cls-1{fill:#eeefeb;}.cls-2{fill:#94877e;}</style></defs><title>icon-bow</title><rect class="cls-1" width="418.3" height="238"/><path class="cls-2" d="M241.09,146.14,214,119l54.2-54.2.72-.21a6.79,6.79,0,0,0,8.1-7.32,7.09,7.09,0,0,0-7.19-6.12c-41,.07-72.13,10.23-93.56,30.12L160.66,65.71l7.2-7.2L141.3,51.15l7.37,26.56,7.2-7.2,15.56,15.56c-19.9,21.43-30.06,52.59-30.13,93.55a7.09,7.09,0,0,0,6.11,7.2,6.79,6.79,0,0,0,7.33-8.1L155,178l54.2-54.2,27.14,27.14V166.5l20.36,20.35V166.5H277l-20.35-20.36Zm-88.33,21.48c1.77-32.27,10.66-57.05,26.78-74.59l23.91,23.91ZM184.5,88.08C202,72,226.82,63.06,259.09,61.31L208.4,112Z"/></svg>