<svg id="Layer_1" data-name="Layer 1" xmlns="http://www.w3.org/2000/svg" viewBox="0 0 418.3 238"><defs><style>.cls-1{fill:#eeefeb;}.cls-2{fill:none;}.cls-3{fill:#94877e;}</style></defs><title>icon-people</title><rect class="cls-1" width="418.3" height="238"/><path class="cls-2" d="M260.48,110.61a1,1,0,0,0,.82.36.71.71,0,0,0,.35-.19,22.07,22.07,0,0,0,7,10.53,9.18,9.18,0,0,0,12.14-.09,22.27,22.27,0,0,0,6.85-10.44.64.64,0,0,0,.35.19.89.89,0,0,0,.71-.26,5.53,5.53,0,0,0,1.4-3.09c.33-1.85,0-3.47-.67-3.8l-.15,0a.84.84,0,0,0-.66.22h0v0a14.46,14.46,0,0,0-3-6.28,3.06,3.06,0,0,0-.67-.28c0,.46.51,1.18.56,1.87-1.51-.7-3-1.8-5.06-1.87-.49,0-1,0-1.57,0-5.09,1.82-10.68-.23-10.68-.23-6.37-.6-7.38,6-7.46,6.79a.43.43,0,0,0,0,0h0a.87.87,0,0,0-.68-.23.66.66,0,0,0-.27.12,1.52,1.52,0,0,0-.47.75c-.06.89-.1,1.79-.12,2.72v.07A6.17,6.17,0,0,0,260.48,110.61Z"/><path class="cls-2" d="M152.56,123.92l0,0a15.56,15.56,0,0,1-5.11,3.47,10.28,10.28,0,0,1-7.76,0,15.78,15.78,0,0,1-5.16-3.51h0a4.07,4.07,0,0,1-2.44,3.51,3.11,3.11,0,0,1-.33.15,4.27,4.27,0,0,1-.51.21h0a2.86,2.86,0,0,0,.62,1.41c1.63,2.08,6.22,5.1,11.63,5.1s10-3,11.62-5.1a2.88,2.88,0,0,0,.63-1.41v0C155.06,127.45,152.59,126.37,152.56,123.92Z"/><path class="cls-2" d="M189.28,109.1a1.21,1.21,0,0,0,1.05.46.89.89,0,0,0,.46-.24c1.68,5.22,4.9,10.43,9,13.54a11.79,11.79,0,0,0,15.6-.12c4-3.12,7.15-8.26,8.8-13.42a.89.89,0,0,0,.46.24,1.12,1.12,0,0,0,.91-.33,7.17,7.17,0,0,0,1.8-4c.42-2.38,0-4.47-.86-4.89a.66.66,0,0,0-.2-.06,1.07,1.07,0,0,0-.85.27l0,0h0a.07.07,0,0,1,0,0c-1.07-4.08-2.43-6.58-3.83-8.07a4.74,4.74,0,0,0-.86-.37c0,.61.65,1.52.72,2.41-1.94-.9-3.8-2.3-6.5-2.41-.64,0-1.32,0-2,0-6.54,2.34-13.72-.31-13.72-.31-8.2-.76-9.5,7.76-9.6,8.73v.07h0a1.11,1.11,0,0,0-.87-.29.78.78,0,0,0-.35.15,1.91,1.91,0,0,0-.61,1c-.08,1.15-.13,2.31-.15,3.5,0,.11,0,.22.05.33A7.6,7.6,0,0,0,189.28,109.1Z"/><path class="cls-2" d="M157.31,105.85l-.15,0-1.54,1.49-19-9.77c-6.21-.58-7.2,7.71-7.27,8.45v0a.88.88,0,0,0-.66-.22.85.85,0,0,0-.26.11c-.6.43-.84,1.94-.54,3.64a5.85,5.85,0,0,0,1.25,2.91,1,1,0,0,0,.8.35.76.76,0,0,0,.35-.19,21.58,21.58,0,0,0,6.71,10.2,8.93,8.93,0,0,0,11.82,0,21.6,21.6,0,0,0,6.74-10.23.76.76,0,0,0,.35.19.84.84,0,0,0,.69-.25,5.52,5.52,0,0,0,1.36-3C158.28,107.75,158,106.17,157.31,105.85Z"/><path class="cls-3" d="M169.29,131.29a11.57,11.57,0,0,0-5.78-2.57l-.53-.11c-4.53-4.19-1.44-21.68-1.44-21.68,0-26.67-18-24.05-18-24.05l-.66,0-.65,0s-18-2.62-18,24.05c0,0,3.1,17.49-1.44,21.68l-.52.11c-1.5.35-8.44.8-12.2,13.72a7.05,7.05,0,0,0,.5,5.23c3.08,5.82,19.27,7.61,32.35,7.61a120.91,120.91,0,0,0,16.94-1.11,13.72,13.72,0,0,1,.23-6.64Q163.2,136.64,169.29,131.29Zm-13.57-3.55a2.85,2.85,0,0,1-.63,1.4c-1.63,2.09-6.22,5.1-11.62,5.1s-10-3-11.63-5.1a2.83,2.83,0,0,1-.62-1.4h0a3.7,3.7,0,0,0,.51-.2l.33-.16a4.07,4.07,0,0,0,2.44-3.51h0a15.73,15.73,0,0,0,5.16,3.51,10.16,10.16,0,0,0,7.76,0,15.69,15.69,0,0,0,5.11-3.46h0c0,2.45,2.5,3.53,3.16,3.77ZM158,109.56a5.52,5.52,0,0,1-1.36,3,.87.87,0,0,1-.69.24.66.66,0,0,1-.35-.18,21.57,21.57,0,0,1-6.74,10.22,8.93,8.93,0,0,1-11.82,0,21.6,21.6,0,0,1-6.71-10.19.74.74,0,0,1-.35.18,1,1,0,0,1-.8-.35,5.77,5.77,0,0,1-1.25-2.9c-.3-1.71-.06-3.21.54-3.64a.54.54,0,0,1,.26-.11.81.81,0,0,1,.66.22v0c.07-.74,1.06-9,7.27-8.46l19,9.77,1.54-1.48a.44.44,0,0,1,.15,0C158,106.17,158.28,107.75,158,109.56Z"/><path class="cls-3" d="M308.3,142.1c-3.86-13.28-11-13.73-12.53-14.09-3-.71-6.68-.41-8.63-1-.34,2.86-5.85,5.13-12.58,5.13S262.32,129.85,262,127c-2,.61-5.61.31-8.63,1a11.92,11.92,0,0,0-7.23,3.85c3.73,3.57,6.62,8.8,8.61,15.67a13.56,13.56,0,0,1,.31,6.26,116,116,0,0,0,19.52,1.49c13.44,0,30.06-1.83,33.22-7.81A7.28,7.28,0,0,0,308.3,142.1Z"/><path class="cls-3" d="M259,113.18a28.42,28.42,0,0,0,6.45,10.26,16,16,0,0,0,5.19,3.5,10.57,10.57,0,0,0,8,0,16.28,16.28,0,0,0,5.35-3.66,28.62,28.62,0,0,0,6.3-10.13c1.07-.32,2.2-2.32,2.66-4.89.49-2.78,0-5.21-1.05-5.61,0-.69.06-1.37.06-2.08,0-10.09-5.94-16.75-15.27-17.38-8.13-.54-14.26,2.69-17.05,8.06a21.87,21.87,0,0,0-1.68,7.32,16.38,16.38,0,0,0-.5,4h0v0h-.06c-1.19.21-1.73,2.74-1.21,5.67C256.68,110.94,257.89,113,259,113.18Zm.27-8.54a1.39,1.39,0,0,1,.47-.75.66.66,0,0,1,.27-.12.87.87,0,0,1,.68.23h0v0c.08-.76,1.09-7.39,7.47-6.79,0,0,5.59,2,10.67.23.55,0,1.08,0,1.58,0,2.11.07,3.55,1.17,5.06,1.87-.06-.69-.59-1.41-.57-1.87a3.14,3.14,0,0,1,.68.28,14.46,14.46,0,0,1,3,6.28v0h0a.82.82,0,0,1,.66-.22l.16,0c.69.33,1,2,.66,3.8a5.53,5.53,0,0,1-1.4,3.09.87.87,0,0,1-.7.26.79.79,0,0,1-.36-.19,22.27,22.27,0,0,1-6.85,10.44,10,10,0,0,1-6.13,2.34,9.86,9.86,0,0,1-6-2.25,22,22,0,0,1-7-10.53.72.72,0,0,1-.35.19,1,1,0,0,1-.83-.36,6,6,0,0,1-1.28-3c0-.09,0-.17,0-.26C259.17,106.43,259.21,105.53,259.28,104.64Z"/><path class="cls-3" d="M187.38,110.43a36.6,36.6,0,0,0,8.3,13.19,20.46,20.46,0,0,0,6.66,4.49,13.39,13.39,0,0,0,10.25,0,20.61,20.61,0,0,0,6.88-4.7,36.74,36.74,0,0,0,8.1-13c1.38-.41,2.82-3,3.41-6.29.64-3.58,0-6.7-1.34-7.22.05-.87.08-1.76.08-2.66,0-13-7.64-21.54-19.63-22.35-10.46-.7-18.34,3.46-21.92,10.36-1.21,2.33-1.9,6.26-2.17,9.42a21.56,21.56,0,0,0-.64,5.12h0v0h-.08c-1.53.26-2.22,3.53-1.55,7.28C184.39,107.56,185.94,110.23,187.38,110.43Zm.35-9a1.87,1.87,0,0,1,.6-1,.83.83,0,0,1,.35-.15,1.11,1.11,0,0,1,.87.29h0v-.07c.1-1,1.4-9.49,9.6-8.73,0,0,7.18,2.64,13.73.31.7,0,1.39,0,2,0,2.71.1,4.56,1.5,6.5,2.41-.07-.89-.76-1.81-.72-2.41a4.13,4.13,0,0,1,.86.37c1.4,1.49,2.76,4,3.83,8.07a.09.09,0,0,1,0,0h0v0a1.13,1.13,0,0,1,.85-.28l.21.07c.89.42,1.27,2.51.85,4.89a7.14,7.14,0,0,1-1.8,4,1.11,1.11,0,0,1-.91.32.83.83,0,0,1-.45-.24c-1.66,5.16-4.82,10.3-8.81,13.43a11.82,11.82,0,0,1-15.6.12c-4.06-3.11-7.28-8.32-9-13.55a.89.89,0,0,1-.46.24,1.24,1.24,0,0,1-1.05-.46,7.56,7.56,0,0,1-1.66-3.83c0-.12,0-.23,0-.34C187.59,103.73,187.64,102.57,187.73,101.42Z"/><path class="cls-3" d="M234.65,131.13c-3.88-.9-8.59-.52-11.1-1.3-.44,3.67-7.51,6.6-16.17,6.6s-15.74-2.93-16.18-6.6c-2.51.78-7.21.4-11.1,1.3-2,.46-11.14,1.05-16.1,18.12a9.38,9.38,0,0,0,.66,6.91c4.06,7.67,25.4,10,42.67,10h.09c17.27,0,38.61-2.37,42.67-10a9.33,9.33,0,0,0,.67-6.91C245.79,132.18,236.63,131.59,234.65,131.13Z"/></svg>