<svg id="Layer_1" data-name="Layer 1" xmlns="http://www.w3.org/2000/svg" viewBox="0 0 223 218"><defs><style>.cls-1{fill:none;}.cls-2{fill:#94877e;}</style></defs><title>icon-people</title><path class="cls-1" d="M162.83,100.61a1,1,0,0,0,.82.36.71.71,0,0,0,.35-.19,22.07,22.07,0,0,0,7,10.53,9.18,9.18,0,0,0,12.14-.09A22.18,22.18,0,0,0,190,100.78a.7.7,0,0,0,.36.19.89.89,0,0,0,.71-.26,5.6,5.6,0,0,0,1.4-3.09c.32-1.85,0-3.47-.67-3.8l-.15,0a.83.83,0,0,0-.66.22h0v0a14.46,14.46,0,0,0-3-6.28,3.06,3.06,0,0,0-.67-.28c0,.46.5,1.18.56,1.87-1.51-.7-2.95-1.8-5.06-1.87-.49,0-1,0-1.57,0-5.09,1.82-10.68-.23-10.68-.23-6.37-.6-7.39,6-7.46,6.79a.07.07,0,0,0,0,0h0a.87.87,0,0,0-.68-.23.66.66,0,0,0-.27.12,1.45,1.45,0,0,0-.47.75c-.06.89-.1,1.79-.12,2.72v.07A6.09,6.09,0,0,0,162.83,100.61Z"/><path class="cls-1" d="M54.91,113.92l0,0a15.42,15.42,0,0,1-5.1,3.47,10.31,10.31,0,0,1-7.77,0,15.85,15.85,0,0,1-5.15-3.51h0a4.07,4.07,0,0,1-2.44,3.51l-.33.15a4.27,4.27,0,0,1-.51.21h0a2.77,2.77,0,0,0,.62,1.41c1.63,2.08,6.22,5.1,11.63,5.1s10-3,11.62-5.1a2.88,2.88,0,0,0,.63-1.41v0C57.4,117.45,54.94,116.37,54.91,113.92Z"/><path class="cls-1" d="M91.62,99.1a1.24,1.24,0,0,0,1.06.46.89.89,0,0,0,.46-.24c1.67,5.22,4.89,10.43,9,13.54a11.79,11.79,0,0,0,15.6-.12c4-3.12,7.15-8.26,8.8-13.42a.89.89,0,0,0,.46.24,1.14,1.14,0,0,0,.91-.33,7.17,7.17,0,0,0,1.8-4c.42-2.38,0-4.47-.86-4.89a.66.66,0,0,0-.2-.06,1.07,1.07,0,0,0-.85.27l0,0h0v0c-1.08-4.08-2.43-6.58-3.83-8.07a4.74,4.74,0,0,0-.86-.37c0,.61.65,1.52.72,2.41-1.94-.9-3.8-2.3-6.5-2.41-.64,0-1.33,0-2,0-6.54,2.34-13.72-.31-13.72-.31-8.2-.76-9.5,7.76-9.6,8.73v.07h0a1.12,1.12,0,0,0-.88-.29.74.74,0,0,0-.34.15,1.91,1.91,0,0,0-.61,1c-.08,1.15-.13,2.31-.15,3.5,0,.11,0,.22,0,.33A7.69,7.69,0,0,0,91.62,99.1Z"/><path class="cls-1" d="M59.66,95.85l-.16,0L58,97.29,39,87.52c-6.21-.58-7.2,7.71-7.27,8.45v0A.88.88,0,0,0,31,95.8a.85.85,0,0,0-.26.11c-.6.43-.84,1.94-.54,3.64a5.85,5.85,0,0,0,1.25,2.91,1,1,0,0,0,.8.35.76.76,0,0,0,.35-.19,21.58,21.58,0,0,0,6.71,10.2,9.7,9.7,0,0,0,5.92,2.25,9.73,9.73,0,0,0,5.9-2.22,21.67,21.67,0,0,0,6.74-10.23.71.71,0,0,0,.35.19.82.82,0,0,0,.68-.25,5.39,5.39,0,0,0,1.36-3C60.63,97.75,60.34,96.17,59.66,95.85Z"/><path class="cls-2" d="M71.64,121.29a11.6,11.6,0,0,0-5.78-2.57l-.53-.11c-4.53-4.19-1.44-21.68-1.44-21.68,0-26.67-18-24.05-18-24.05l-.65,0-.65,0s-18-2.62-18,24.05c0,0,3.09,17.49-1.44,21.68l-.53.11c-1.49.35-8.43.8-12.19,13.72a7.05,7.05,0,0,0,.5,5.23c3.07,5.82,19.26,7.61,32.35,7.61a120.91,120.91,0,0,0,16.94-1.11,13.72,13.72,0,0,1,.23-6.64C64.48,130.27,67.59,124.85,71.64,121.29Zm-13.57-3.55a2.85,2.85,0,0,1-.63,1.4c-1.63,2.09-6.22,5.1-11.62,5.1s-10-3-11.63-5.1a2.83,2.83,0,0,1-.62-1.4h0a3.7,3.7,0,0,0,.51-.2l.33-.16a4.07,4.07,0,0,0,2.44-3.51h0A15.8,15.8,0,0,0,42,117.37a10.19,10.19,0,0,0,7.77,0,15.65,15.65,0,0,0,5.1-3.46h0c0,2.45,2.49,3.53,3.16,3.77ZM60.3,99.56a5.39,5.39,0,0,1-1.36,3,.85.85,0,0,1-.68.24.62.62,0,0,1-.35-.18,21.64,21.64,0,0,1-6.74,10.22,9.67,9.67,0,0,1-5.9,2.22,9.7,9.7,0,0,1-5.92-2.25,21.6,21.6,0,0,1-6.71-10.19.74.74,0,0,1-.35.18.94.94,0,0,1-.8-.35,5.77,5.77,0,0,1-1.25-2.9c-.31-1.71-.06-3.21.54-3.64a.54.54,0,0,1,.26-.11.81.81,0,0,1,.66.22v0c.07-.74,1.06-9,7.27-8.46l19,9.77,1.54-1.48a.43.43,0,0,1,.16,0C60.34,96.17,60.63,97.75,60.3,99.56Z"/><path class="cls-2" d="M210.65,132.1c-3.86-13.28-11-13.73-12.53-14.09-3-.71-6.68-.41-8.63-1-.34,2.86-5.85,5.13-12.58,5.13s-12.24-2.27-12.58-5.13c-2,.61-5.61.31-8.63,1a11.92,11.92,0,0,0-7.23,3.85c3.73,3.57,6.62,8.8,8.61,15.67a13.56,13.56,0,0,1,.31,6.26,116,116,0,0,0,19.52,1.49c13.44,0,30.06-1.83,33.22-7.81A7.28,7.28,0,0,0,210.65,132.1Z"/><path class="cls-2" d="M161.35,103.18a28.58,28.58,0,0,0,6.46,10.26,16,16,0,0,0,5.18,3.5,10.6,10.6,0,0,0,8,0,16.14,16.14,0,0,0,5.34-3.66,28.5,28.5,0,0,0,6.31-10.13c1.07-.32,2.2-2.32,2.65-4.89.5-2.78,0-5.21-1-5.61,0-.69.06-1.37.06-2.08,0-10.09-5.94-16.75-15.27-17.38-8.13-.54-14.26,2.69-17.05,8.06a21.87,21.87,0,0,0-1.68,7.32,16.38,16.38,0,0,0-.5,4h0v0h-.06c-1.19.21-1.73,2.74-1.21,5.67C159,100.94,160.24,103,161.35,103.18Zm.27-8.54a1.52,1.52,0,0,1,.47-.75.8.8,0,0,1,.27-.12A.85.85,0,0,1,163,94h0v0c.08-.76,1.09-7.39,7.47-6.79,0,0,5.59,2,10.67.23.55,0,1.08,0,1.58,0,2.1.07,3.54,1.17,5.06,1.87-.06-.69-.6-1.41-.57-1.87a3.06,3.06,0,0,1,.67.28,14.45,14.45,0,0,1,3,6.28v0h0a.81.81,0,0,1,.66-.22l.16,0c.69.33,1,2,.66,3.8a5.53,5.53,0,0,1-1.4,3.09.89.89,0,0,1-.71.26.71.71,0,0,1-.35-.19,22.27,22.27,0,0,1-6.85,10.44,10,10,0,0,1-6.13,2.34,9.83,9.83,0,0,1-6-2.25,22,22,0,0,1-7-10.53.7.7,0,0,1-.36.19,1,1,0,0,1-.82-.36,6,6,0,0,1-1.28-3,2.34,2.34,0,0,1,0-.26C161.52,96.43,161.56,95.53,161.62,94.64Z"/><path class="cls-2" d="M89.73,100.43A36.6,36.6,0,0,0,98,113.62a20.46,20.46,0,0,0,6.66,4.49,13.39,13.39,0,0,0,10.25,0,20.61,20.61,0,0,0,6.88-4.7,36.74,36.74,0,0,0,8.1-13c1.38-.41,2.82-3,3.41-6.29.64-3.58,0-6.7-1.34-7.22,0-.87.08-1.76.08-2.66,0-13-7.64-21.54-19.64-22.35C102,61.17,94.1,65.33,90.51,72.23c-1.2,2.33-1.89,6.26-2.16,9.42a21.56,21.56,0,0,0-.64,5.12h0v0h-.08c-1.53.26-2.22,3.53-1.56,7.28C86.73,97.56,88.29,100.23,89.73,100.43Zm.34-9a1.88,1.88,0,0,1,.61-1,.83.83,0,0,1,.35-.15,1.11,1.11,0,0,1,.87.29h0v-.07c.1-1,1.4-9.49,9.6-8.73,0,0,7.18,2.64,13.72.31.71,0,1.39,0,2,0,2.71.1,4.56,1.5,6.5,2.41-.07-.89-.76-1.81-.72-2.41a4.13,4.13,0,0,1,.86.37c1.4,1.49,2.76,4,3.83,8.07a.09.09,0,0,0,0,0h0v0a1.13,1.13,0,0,1,.85-.28l.2.07c.9.42,1.28,2.51.86,4.89a7.21,7.21,0,0,1-1.8,4,1.11,1.11,0,0,1-.91.32.83.83,0,0,1-.45-.24c-1.66,5.16-4.82,10.3-8.81,13.43a11.82,11.82,0,0,1-15.6.12c-4.06-3.11-7.28-8.32-9-13.55a.89.89,0,0,1-.46.24,1.22,1.22,0,0,1-1.05-.46A7.56,7.56,0,0,1,90,95.26c0-.12,0-.23,0-.34C89.94,93.73,90,92.57,90.07,91.42Z"/><path class="cls-2" d="M137,121.13c-3.89-.9-8.59-.52-11.1-1.3-.44,3.67-7.51,6.6-16.17,6.6S94,123.5,93.55,119.83c-2.51.78-7.21.4-11.1,1.3-2,.46-11.14,1.05-16.1,18.12a9.38,9.38,0,0,0,.66,6.91c4.06,7.67,25.4,10,42.67,10h.09c17.27,0,38.61-2.37,42.67-10a9.33,9.33,0,0,0,.67-6.91C148.14,122.18,139,121.59,137,121.13Z"/></svg>